<svg width="20" height="20" viewBox="0 0 20 20" fill="none" xmlns="http://www.w3.org/2000/svg">
<rect width="20" height="20" rx="10" fill="#ECECFE"/>
<path d="M15.7882 12.771C15.5957 14.3227 14.324 15.5943 12.7724 15.7868C11.8332 15.9035 10.9582 15.6468 10.2757 15.1452C9.88488 14.8593 9.97821 14.2527 10.4449 14.1127C12.2007 13.5818 13.5832 12.1935 14.1199 10.4377C14.2599 9.97684 14.8665 9.88351 15.1524 10.2685C15.6482 10.9568 15.9049 11.8318 15.7882 12.771Z" fill="#2E2EFE"/>
<path d="M8.8249 4.16699C6.2524 4.16699 4.16406 6.25533 4.16406 8.82783C4.16406 11.4003 6.2524 13.4887 8.8249 13.4887C11.3974 13.4887 13.4857 11.4003 13.4857 8.82783C13.4799 6.25533 11.3974 4.16699 8.8249 4.16699ZM8.27656 8.17449L9.6824 8.66449C10.1899 8.84533 10.4349 9.20116 10.4349 9.74949C10.4349 10.3795 9.93323 10.8987 9.32073 10.8987H9.26823V10.9278C9.26823 11.167 9.0699 11.3653 8.83073 11.3653C8.59156 11.3653 8.39323 11.167 8.39323 10.9278V10.8928C7.74573 10.8637 7.22656 10.3212 7.22656 9.64449C7.22656 9.40533 7.4249 9.20699 7.66406 9.20699C7.90323 9.20699 8.10156 9.40533 8.10156 9.64449C8.10156 9.85449 8.25323 10.0237 8.4399 10.0237H9.3149C9.44906 10.0237 9.55406 9.90116 9.55406 9.74949C9.55406 9.54533 9.51906 9.53366 9.3849 9.48699L7.97906 8.99699C7.4774 8.82199 7.22656 8.46616 7.22656 7.91199C7.22656 7.28199 7.72823 6.76283 8.34073 6.76283H8.39323V6.73949C8.39323 6.50033 8.59156 6.30199 8.83073 6.30199C9.0699 6.30199 9.26823 6.50033 9.26823 6.73949V6.77449C9.91573 6.80366 10.4349 7.34616 10.4349 8.02283C10.4349 8.26199 10.2366 8.46033 9.9974 8.46033C9.75823 8.46033 9.5599 8.26199 9.5599 8.02283C9.5599 7.81283 9.40823 7.64366 9.22156 7.64366H8.34656C8.2124 7.64366 8.1074 7.76616 8.1074 7.91783C8.10156 8.11616 8.13656 8.12783 8.27656 8.17449Z" fill="#2E2EFE"/>
</svg>
