<svg width="32" height="32" viewBox="0 0 32 32" fill="none" xmlns="http://www.w3.org/2000/svg">
<g clip-path="url(#clip0_2756_59382)">
<rect width="32" height="32" rx="16" fill="white"/>
<rect width="32" height="32" rx="16" fill="url(#paint0_linear_2756_59382)"/>
<path opacity="0.3" d="M40 22H34.9725L28.1025 15.0038C27.197 14.0752 25.994 13.611 24.7972 13.611C23.6005 13.611 22.4038 14.0752 21.492 15.0038L17.0281 19.5562C15.4704 21.1359 13.4442 21.9549 11.4054 22H11.0065C8.99295 21.9549 6.98575 21.1553 5.43445 19.6013L-4 10H1.02749L7.89754 16.9962C8.80933 17.9248 10.006 18.389 11.2028 18.389C12.3995 18.389 13.6025 17.9248 14.5143 16.9962L18.9783 12.4503C20.5802 10.8125 22.6887 10 24.7972 10C26.9057 10 29.0142 10.8125 30.6162 12.4503L36.4288 18.3632L38.8983 20.878L39.6454 21.6389L40 22Z" fill="#24BA9C"/>
<path d="M7.55806 14.0363H4.17071L3.1875 18.073H4.12436L4.46611 16.6727H7.05028C7.78338 16.6727 8.26205 16.3028 8.43347 15.6016C8.55637 15.0975 8.5693 14.9951 8.5693 14.8806C8.5693 14.6263 8.4712 14.0352 7.55806 14.0352M4.87147 15.0105H7.45672C7.54081 15.0105 7.59148 15.0149 7.62059 15.0204C7.61843 15.0633 7.59903 15.1558 7.54297 15.4002C7.48691 15.6313 7.39958 15.6974 7.15378 15.6974H4.70329L4.87255 15.0105H4.87147Z" fill="white"/>
<path d="M14.8783 18.0774C14.7899 18.0774 14.7327 18.0752 14.6971 18.0719C14.7015 18.0388 14.7101 17.9915 14.7284 17.9244L16.1396 12.0625H15.2179L13.8077 17.8572C13.7765 17.9827 13.7614 18.1005 13.7614 18.2073C13.7614 18.4616 13.8606 19.0527 14.7769 19.0527H17.4851L17.7223 18.0785H14.8804L14.8783 18.0774Z" fill="white"/>
<path d="M19.6833 15.0105H23.3703L23.6086 14.0363H19.7857C19.0817 14.0363 18.6408 14.3643 18.4758 15.0116C18.3357 15.5477 18.326 15.649 18.326 15.7535C18.326 15.9836 18.4219 16.5197 19.3114 16.5197H21.9343C21.9882 16.5197 22.0271 16.5219 22.0562 16.5241C22.0475 16.5637 22.0346 16.6199 22.0184 16.6859L21.9699 16.8951C21.9387 17.0173 21.8168 17.0965 21.6605 17.0965H17.9605L17.7201 18.0708H21.5581C22.2545 18.0708 22.7062 17.7251 22.8658 17.0679C22.9833 16.5516 23.0049 16.4581 23.0049 16.3403C23.0049 16.1003 22.9111 15.5433 22.0411 15.5433H19.4181C19.3631 15.5433 19.3221 15.5433 19.2909 15.5411C19.306 15.4717 19.3308 15.3594 19.3696 15.1932C19.3933 15.0997 19.4375 15.0094 19.6833 15.0094" fill="white"/>
<path d="M25.0726 15.0105H28.5107L28.75 14.0363H25.1751C24.4409 14.0363 23.9633 14.4061 23.7919 15.1074L23.3596 16.872C23.3294 16.9997 23.3143 17.123 23.3143 17.2275C23.3143 17.4818 23.4124 18.073 24.3255 18.073H27.7657L27.9997 17.0987H24.429C24.3395 17.0987 24.2856 17.0943 24.2544 17.0899C24.2565 17.0613 24.2641 17.0129 24.2835 16.9358L24.3827 16.5208H28.1452L28.3845 15.5466H24.622L24.6813 15.3033C24.7374 15.0622 24.926 15.0116 25.0748 15.0116" fill="white"/>
<path d="M13.5953 13.0455L12.6757 16.8345C12.6348 17.0019 12.4957 17.0987 12.2952 17.0987H9.65494C9.5633 17.0987 9.50832 17.0954 9.47598 17.091C9.47921 17.0525 9.48999 17.0052 9.50077 16.9589L10.2123 14.0506H9.27545L8.58655 16.872C8.55637 16.9997 8.5402 17.123 8.5402 17.2275C8.5402 17.4818 8.6383 18.073 9.55144 18.073H12.1917C12.9226 18.073 13.3991 17.7064 13.5705 17.0118L14.5139 13.0466H13.5953V13.0455Z" fill="white"/>
<path d="M25.0888 19.875V18.6454H25.9815V18.8534H25.3314V19.1264H25.9362V19.3334H25.3314V19.668H26.0041V19.875H25.0877H25.0888Z" fill="white"/>
<path d="M26.8989 19.875L26.4688 18.6454H26.7329L27.038 19.5558L27.3334 18.6454H27.5911L27.1598 19.875H26.8989Z" fill="white"/>
</g>
<defs>
<linearGradient id="paint0_linear_2756_59382" x1="16" y1="0" x2="16" y2="32" gradientUnits="userSpaceOnUse">
<stop stop-color="#08AC85"/>
<stop offset="1" stop-color="#00AA5B"/>
</linearGradient>
<clipPath id="clip0_2756_59382">
<rect width="32" height="32" rx="16" fill="white"/>
</clipPath>
</defs>
</svg>
