<svg width="40" height="40" viewBox="0 0 40 40" fill="none" xmlns="http://www.w3.org/2000/svg">
<g clip-path="url(#clip0_1136_49317)">
<path d="M40 20C40 8.9543 31.0457 0 20 0C8.9543 0 0 8.9543 0 20C0 31.0457 8.9543 40 20 40C31.0457 40 40 31.0457 40 20Z" fill="#00AA5B"/>
<path d="M20 36C28.8366 36 36 28.8366 36 20C36 11.1634 28.8366 4 20 4C11.1634 4 4 11.1634 4 20C4 28.8366 11.1634 36 20 36Z" fill="#3EC94A"/>
<path d="M20 34C27.732 34 34 27.732 34 20C34 12.268 27.732 6 20 6C12.268 6 6 12.268 6 20C6 27.732 12.268 34 20 34Z" stroke="#05CD99" stroke-opacity="0.2" stroke-width="4"/>
<path d="M14 21.2868L21.7143 11.4297V18.7154H26L18.2857 28.5725V21.2868H14Z" fill="white"/>
</g>
<defs>
<clipPath id="clip0_1136_49317">
<rect width="40" height="40" fill="white"/>
</clipPath>
</defs>
</svg>
