<svg width="36" height="48" viewBox="0 0 36 48" fill="none" xmlns="http://www.w3.org/2000/svg">
<ellipse cx="17.9994" cy="42" rx="16.0541" ry="6" fill="url(#paint0_radial_980_45283)"/>
<path d="M18 42C18.2458 42 18.4915 41.9039 18.6807 41.7118L25.4197 34.8661C31.6437 32.079 36 25.6538 36 18.1728C36 8.13625 28.1589 0 18.4865 0C18.3238 0 18.1616 0.00230183 18 0.0068758V42Z" fill="#FFCB44"/>
<path d="M18 42C17.7542 42 17.5085 41.9039 17.3193 41.7118L10.5803 34.8661C4.35633 32.079 0 25.6538 0 18.1728C0 8.13625 7.84107 0 17.5135 0C17.6762 0 17.8384 0.00230183 18 0.0068758V42Z" fill="#00AA5B"/>
<path d="M18 32C25.732 32 32 25.732 32 18C32 10.268 25.732 4 18 4V32Z" fill="#ECA200"/>
<path d="M18 32C10.268 32 4 25.732 4 18C4 10.268 10.268 4 18 4V32Z" fill="#3EC94A"/>
<path d="M27.4286 13.0171V12.2857C27.4286 12.1342 27.3684 11.9888 27.2612 11.8817C27.154 11.7745 27.0087 11.7143 26.8571 11.7143C26.7056 11.7143 26.5602 11.7745 26.4531 11.8817C26.3459 11.9888 26.2857 12.1342 26.2857 12.2857V12.8571H25.1429V12.2857C25.1429 12.1342 25.0827 11.9888 24.9755 11.8817C24.8683 11.7745 24.723 11.7143 24.5714 11.7143C24.4199 11.7143 24.2745 11.7745 24.1674 11.8817C24.0602 11.9888 24 12.1342 24 12.2857V13.0171C23.8273 13.1169 23.6836 13.2601 23.5834 13.4325C23.4832 13.6049 23.4298 13.8006 23.4286 14V15.1429C23.4289 15.6493 23.5975 16.1413 23.9078 16.5415C24.2181 16.9418 24.6525 17.2277 25.1429 17.3543C25.1396 17.3789 25.1396 17.4039 25.1429 17.4286V20.8571C25.1429 21.4634 24.902 22.0447 24.4734 22.4734C24.0447 22.902 23.4634 23.1429 22.8571 23.1429H22.2857V12.8571C22.2857 12.0994 21.9847 11.3727 21.4489 10.8368C20.9131 10.301 20.1863 10 19.4286 10H14.8571C14.0994 10 13.3727 10.301 12.8368 10.8368C12.301 11.3727 12 12.0994 12 12.8571V25.4286C12 25.5801 12.0602 25.7255 12.1674 25.8326C12.2745 25.9398 12.4199 26 12.5714 26H21.7143C21.8658 26 22.0112 25.9398 22.1183 25.8326C22.2255 25.7255 22.2857 25.5801 22.2857 25.4286V24.2857H22.8571C23.7665 24.2857 24.6385 23.9245 25.2815 23.2815C25.9245 22.6385 26.2857 21.7665 26.2857 20.8571V17.4286C26.2889 17.4039 26.2889 17.3789 26.2857 17.3543C26.7761 17.2277 27.2105 16.9418 27.5208 16.5415C27.8311 16.1413 27.9996 15.6493 28 15.1429V14C27.9988 13.8006 27.9454 13.6049 27.8452 13.4325C27.7449 13.2601 27.6013 13.1169 27.4286 13.0171ZM18.76 21.1714L17.6171 22.8857C17.5654 22.9643 17.495 23.0289 17.4123 23.0738C17.3295 23.1186 17.237 23.1424 17.1429 23.1429C17.0305 23.1441 16.9206 23.1102 16.8286 23.0457C16.7033 22.9619 16.6162 22.8321 16.5862 22.6844C16.5563 22.5367 16.5859 22.3831 16.6686 22.2571L17.24 21.4286H16C15.8966 21.4283 15.7953 21.4 15.7067 21.3467C15.6182 21.2933 15.5457 21.217 15.4971 21.1257C15.4513 21.0364 15.4297 20.9365 15.4348 20.8362C15.4398 20.7358 15.4711 20.6386 15.5257 20.5543L16.6686 18.84C16.7579 18.7291 16.8854 18.6556 17.0261 18.6338C17.1668 18.612 17.3105 18.6435 17.4292 18.7221C17.5479 18.8008 17.633 18.9209 17.6677 19.059C17.7025 19.197 17.6844 19.3431 17.6171 19.4686L17.0457 20.2971H18.2857C18.3891 20.2974 18.4905 20.3257 18.579 20.3791C18.6676 20.4324 18.74 20.5088 18.7886 20.6C18.8345 20.6894 18.856 20.7892 18.851 20.8895C18.8459 20.9899 18.8146 21.0871 18.76 21.1714ZM20 15.1429C20 15.2944 19.9398 15.4398 19.8326 15.5469C19.7255 15.6541 19.5801 15.7143 19.4286 15.7143H14.8571C14.7056 15.7143 14.5602 15.6541 14.4531 15.5469C14.3459 15.4398 14.2857 15.2944 14.2857 15.1429V12.8571C14.2857 12.7056 14.3459 12.5602 14.4531 12.4531C14.5602 12.3459 14.7056 12.2857 14.8571 12.2857H19.4286C19.5801 12.2857 19.7255 12.3459 19.8326 12.4531C19.9398 12.5602 20 12.7056 20 12.8571V15.1429Z" fill="#FAFAFA"/>
<defs>
<radialGradient id="paint0_radial_980_45283" cx="0" cy="0" r="1" gradientUnits="userSpaceOnUse" gradientTransform="translate(17.9994 42) rotate(90) scale(6 16.0541)">
<stop stop-color="#393939"/>
<stop offset="0.338542" stop-color="#393939" stop-opacity="0.47"/>
<stop offset="0.770833" stop-color="#393939" stop-opacity="0.08"/>
<stop offset="1" stop-color="#393939" stop-opacity="0"/>
</radialGradient>
</defs>
</svg>
