<svg width="168" height="24" viewBox="0 0 168 24" fill="none" xmlns="http://www.w3.org/2000/svg">
<g clip-path="url(#clip0_550_23340)">
<path d="M79.0234 3.39341C78.1775 2.18357 76.9775 1.33767 75.4431 0.86554C74.6955 0.609802 73.9185 0.481934 73.1021 0.481934H62.8037V15.1967L66.6398 19.0328V15.4623H73.1021C74.3021 15.4623 75.4332 15.1967 76.4955 14.6557C77.5676 14.1246 78.4332 13.4164 79.0922 12.5213C80.1545 11.1246 80.6955 9.61964 80.6955 7.97702C80.6463 6.26554 80.0955 4.74095 79.0234 3.39341ZM75.9545 10.3377C75.1873 11.341 74.2234 11.8426 73.0726 11.8426H66.6398V4.13111H73.0726C74.0955 4.13111 75.0004 4.5639 75.7972 5.4098C76.3873 6.118 76.7119 6.97374 76.7513 7.97702C76.7808 8.80325 76.5054 9.59013 75.9545 10.3377Z" fill="#393939"/>
<path d="M93.9148 6.24585V13.7999C93.9148 15.5016 93.8558 16.6327 93.7279 17.1934C93.5312 18.2163 93.0886 19.0131 92.3804 19.5934C91.7214 20.1049 90.964 20.3704 90.1083 20.3901C88.8886 20.4295 87.9345 20.1049 87.2263 19.3967C86.3116 18.5606 85.8493 16.9081 85.8493 14.4393V6.24585H81.9443V14.5967C81.9443 15.7967 81.9738 16.7606 82.0329 17.4885C82.082 18.2262 82.2788 19.0622 82.6034 19.9868C82.9378 20.9213 83.4099 21.6688 84.0296 22.2491C85.4165 23.5475 87.2755 24.118 89.5968 23.9704C91.4952 23.8918 92.9706 23.2327 94.0132 22.0229C94.1804 21.8065 94.3083 21.659 94.3968 21.5704V23.5278H97.8197V6.24585H93.9148Z" fill="#393939"/>
<path d="M100.751 0V23.5279H104.587V0H100.751Z" fill="#393939"/>
<path d="M119.381 14.7246C118.525 14.0656 117.413 13.5639 116.056 13.2197C115.584 13.0721 114.984 12.9049 114.256 12.7082C113.538 12.5213 113.036 12.3738 112.761 12.2951C112.141 12.118 111.669 11.9508 111.345 11.7836C110.882 11.5279 110.646 11.1836 110.646 10.7606C110.646 10.4754 110.754 10.2197 110.961 9.98359C111.177 9.75736 111.423 9.58031 111.699 9.47211C112.387 9.1967 113.066 9.06883 113.745 9.08851C114.669 9.13769 115.427 9.33441 116.017 9.69834C116.764 10.1016 117.315 10.7705 117.649 11.6852L121.269 10.7901C120.974 9.89506 120.492 9.07867 119.843 8.34096C119.194 7.60326 118.456 7.03277 117.62 6.62949C116.528 6.04916 115.318 5.76392 113.971 5.76392C112.436 5.76392 111.177 5.98031 110.194 6.40326C109.299 6.80654 108.571 7.40654 108 8.19342C107.44 8.99015 107.154 9.88523 107.154 10.8885C107.154 12.059 107.469 12.9934 108.089 13.7016C108.659 14.3606 109.623 14.9705 110.961 15.5213C111.069 15.5705 112.466 15.9738 115.161 16.741C116.056 16.9967 116.666 17.2131 117.01 17.3803C117.61 17.6557 117.905 18.0885 117.905 18.659C117.905 19.2295 117.649 19.6623 117.138 20.0065C116.568 20.4295 115.682 20.6459 114.482 20.6459C112.909 20.6459 111.718 20.2033 110.931 19.3278C110.715 19.0819 110.528 18.718 110.351 18.2459C110.184 17.7738 110.086 17.3705 110.066 17.0262L106.456 17.9213C106.515 18.0983 106.604 18.3639 106.712 18.7279C106.81 19.0918 106.889 19.3279 106.928 19.4459C106.977 19.5639 107.046 19.7508 107.145 20.0065C107.233 20.2623 107.331 20.459 107.43 20.5967C107.528 20.7344 107.636 20.9016 107.784 21.0885C107.922 21.2852 108.089 21.4918 108.276 21.6983C109.702 23.2328 111.748 24 114.423 24C116.272 24 117.817 23.6262 119.027 22.8492C119.754 22.4065 120.325 21.8065 120.758 21.0492C121.181 20.2918 121.397 19.4852 121.397 18.6295C121.397 17.0754 120.728 15.7672 119.381 14.7246Z" fill="#393939"/>
<path d="M137.489 8.61638C135.896 6.71801 133.712 5.76392 130.968 5.76392C128.224 5.76392 126.011 6.71801 124.437 8.61638C123.05 10.2787 122.352 12.4328 122.352 15.0787C122.352 17.4 123.05 19.4164 124.437 21.1278C125.184 22.0426 126.158 22.7508 127.358 23.2524C128.568 23.7541 129.837 24 131.155 24C134.479 24 136.997 22.7016 138.709 20.1049L135.896 18.177C135.207 19.0131 134.489 19.6328 133.732 20.036C132.975 20.4393 132.05 20.6459 130.968 20.6459C129.345 20.6459 128.125 20.0951 127.319 18.9836C126.807 18.2951 126.473 17.3901 126.325 16.259H139.506C139.811 13.1705 139.132 10.6131 137.489 8.61638ZM126.424 12.836C126.591 12.0295 126.886 11.3311 127.319 10.7606C128.125 9.64916 129.345 9.08851 130.968 9.08851C132.591 9.08851 133.771 9.64916 134.578 10.7606C135.011 11.3508 135.316 12.0492 135.512 12.836H126.424Z" fill="#393939"/>
<path d="M157.111 22.505H144.118V15.3149H151.465L151.091 14.3017H144.118V7.11157H151.504L151.141 6.08862H143.104V23.528H157.485L157.111 22.505Z" fill="#54D0B7"/>
<path d="M159.767 23.5279L153.423 6.09839H154.515L160.298 22.0525L166.111 6.09839H167.203L160.859 23.5279H159.767Z" fill="#54D0B7"/>
<path d="M68.3508 23.5278H60.541L49.8689 12.8557C48.4623 11.4393 46.5934 10.7311 44.7344 10.7311C42.8754 10.7311 41.0164 11.4393 39.6 12.8557L32.6656 19.7999C30.2459 22.2098 27.0984 23.459 23.9311 23.5278H23.3115C20.1836 23.459 17.0656 22.2393 14.6557 19.8688L0 5.2229H7.80984L18.482 15.895C19.8984 17.3114 21.7574 18.0196 23.6164 18.0196C25.4754 18.0196 27.3443 17.3114 28.7607 15.895L35.6951 8.9606C38.1836 6.46224 41.459 5.2229 44.7344 5.2229C48.0098 5.2229 51.2852 6.46224 53.7738 8.9606L62.8033 17.9803L66.6394 21.8163L67.8 22.977L68.3508 23.5278Z" fill="url(#paint0_linear_550_23340)"/>
</g>
<defs>
<linearGradient id="paint0_linear_550_23340" x1="68.3508" y1="14.3754" x2="-0.502623" y2="13.9501" gradientUnits="userSpaceOnUse">
<stop stop-color="#08AC85"/>
<stop offset="1" stop-color="#00AA5B"/>
</linearGradient>
<clipPath id="clip0_550_23340">
<rect width="167.203" height="24" fill="white"/>
</clipPath>
</defs>
</svg>
