<svg width="56" height="56" viewBox="0 0 56 56" fill="none" xmlns="http://www.w3.org/2000/svg">
<g filter="url(#filter0_d_580_4210)">
<rect x="5.5" y="2" width="45" height="45" rx="12" fill="#0075FF"/>
</g>
<path d="M24.4844 32.9374C25.261 32.9374 25.8906 32.3078 25.8906 31.5311C25.8906 30.7545 25.261 30.1249 24.4844 30.1249C23.7077 30.1249 23.0781 30.7545 23.0781 31.5311C23.0781 32.3078 23.7077 32.9374 24.4844 32.9374Z" fill="white"/>
<path d="M34.3281 32.9374C35.1048 32.9374 35.7344 32.3078 35.7344 31.5311C35.7344 30.7545 35.1048 30.1249 34.3281 30.1249C33.5515 30.1249 32.9219 30.7545 32.9219 31.5311C32.9219 32.3078 33.5515 32.9374 34.3281 32.9374Z" fill="white"/>
<path d="M36.8242 18.558C36.7254 18.4371 36.601 18.3398 36.4599 18.2731C36.3188 18.2063 36.1647 18.1718 36.0086 18.1721H22.6338L22.3645 16.6437C22.3357 16.4809 22.2506 16.3334 22.1239 16.2272C21.9972 16.1209 21.8372 16.0627 21.6719 16.0627H18.8594C18.6729 16.0627 18.4941 16.1368 18.3622 16.2687C18.2303 16.4005 18.1562 16.5794 18.1562 16.7659C18.1562 16.9523 18.2303 17.1312 18.3622 17.2631C18.4941 17.3949 18.6729 17.469 18.8594 17.469H21.0821L23.0887 28.8412C23.1174 29.004 23.2026 29.1514 23.3292 29.2577C23.4559 29.3639 23.6159 29.4221 23.7812 29.4221H35.0312C35.2177 29.4221 35.3966 29.348 35.5284 29.2162C35.6603 29.0843 35.7344 28.9055 35.7344 28.719C35.7344 28.5325 35.6603 28.3537 35.5284 28.2218C35.3966 28.0899 35.2177 28.0159 35.0312 28.0159H24.371L24.1231 26.6096H34.743C34.9868 26.6093 35.2231 26.5248 35.4117 26.3703C35.6004 26.2158 35.7299 26.0009 35.7783 25.7619L37.0439 19.4338C37.0744 19.2806 37.0705 19.1226 37.0325 18.9712C36.9945 18.8197 36.9234 18.6786 36.8242 18.558Z" fill="white"/>
<defs>
<filter id="filter0_d_580_4210" x="-4.76837e-07" y="-2.38419e-07" width="56" height="56" filterUnits="userSpaceOnUse" color-interpolation-filters="sRGB">
<feFlood flood-opacity="0" result="BackgroundImageFix"/>
<feColorMatrix in="SourceAlpha" type="matrix" values="0 0 0 0 0 0 0 0 0 0 0 0 0 0 0 0 0 0 127 0" result="hardAlpha"/>
<feOffset dy="3.5"/>
<feGaussianBlur stdDeviation="2.75"/>
<feColorMatrix type="matrix" values="0 0 0 0 0 0 0 0 0 0 0 0 0 0 0 0 0 0 0.02 0"/>
<feBlend mode="normal" in2="BackgroundImageFix" result="effect1_dropShadow_580_4210"/>
<feBlend mode="normal" in="SourceGraphic" in2="effect1_dropShadow_580_4210" result="shape"/>
</filter>
</defs>
</svg>
